<?xml version="1.0" encoding="utf-8"?><!-- Uploaded to: SVG Repo, www.svgrepo.com, Generator: SVG Repo Mixer Tools -->
<svg 
  xmlns="http://www.w3.org/2000/svg"
  width="24"
  height="24"
  viewBox="0 0 24 24"
  fill="none"
  stroke="currentColor"
  stroke-width="2"
  stroke-linecap="round"
  stroke-linejoin="round"
>
  <path style="fill: none !important;" d="M21 11v8a2 2 0 01-2 2H5a2 2 0 01-2-2V5a2 2 0 012-2h8" />
  <path style="fill: none !important;" d="M8.5 10a1.5 1.5 0 100-3 1.5 1.5 0 000 3z" />
  <path style="fill: none !important;" d="M21 15l-5-5L5 21" />
  <g transform="translate(19, 5) scale(0.33) translate(-12, -12)">
    <path style="fill: none !important;" d="M12 3C12 7.97056 16.0294 12 21 12C16.0294 12 12 16.0294 12 21C12 16.0294 7.97056 12 3 12C7.97056 12 12 7.97056 12 3Z" stroke="currentColor" stroke-width="6" stroke-linecap="round" stroke-linejoin="round"/>
  </g>
</svg>
