<?xml version="1.0" encoding="utf-8"?><!-- Uploaded to: SVG Repo, www.svgrepo.com, Generator: SVG Repo Mixer Tools -->
<svg width="800px" height="800px" viewBox="0 0 24 24" xmlns="http://www.w3.org/2000/svg" fill="none">
<path style="fill: none !important;" stroke="currentColor" stroke-linecap="round" stroke-linejoin="round" stroke-width="2" d="M21 15V5a2 2 0 0 0-2-2h-7m9 12v.172a2 2 0 0 1-.586 1.414l-3.828 3.828a2 2 0 0 1-1.414.586H15m6-6h-4a2 2 0 0 0-2 2v4m0 0H5a2 2 0 0 1-2-2v-7m10-5h4m-7 4h7M7 15h4"/>
<g transform="translate(6, 6) scale(0.33) translate(-12, -12)">
<path style="fill: none !important;" d="M12 3C12 7.97056 16.0294 12 21 12C16.0294 12 12 16.0294 12 21C12 16.0294 7.97056 12 3 12C7.97056 12 12 7.97056 12 3Z" stroke="currentColor" stroke-width="6" stroke-linecap="round" stroke-linejoin="round"/>
</g>
</svg>
